<mxfile host="app.diagrams.net" agent="Mozilla/5.0 (Windows NT 10.0; Win64; x64) AppleWebKit/537.36 (KHTML, like Gecko) Chrome/120.0.0.0 Safari/537.36" version="24.8.4">
  <diagram name="PÃ¡gina-1" id="P0kaNt67weWAGlfiyR77">
    <mxGraphModel dx="2829" dy="1446" grid="0" gridSize="10" guides="1" tooltips="1" connect="1" arrows="1" fold="1" page="0" pageScale="1" pageWidth="827" pageHeight="1169" math="0" shadow="0">
      <root>
        <mxCell id="0" />
        <mxCell id="1" parent="0" />
        <mxCell id="wgPgASkdUD0x6gexptYC-14" value="Sistema&lt;div&gt;&lt;br&gt;&lt;/div&gt;" style="swimlane;fontStyle=1;align=center;verticalAlign=top;childLayout=stackLayout;horizontal=1;startSize=26;horizontalStack=0;resizeParent=1;resizeParentMax=0;resizeLast=0;collapsible=1;marginBottom=0;whiteSpace=wrap;html=1;" vertex="1" parent="1">
          <mxGeometry x="-124" y="108" width="203" height="216" as="geometry" />
        </mxCell>
        <mxCell id="wgPgASkdUD0x6gexptYC-18" value="- elevadores : string" style="text;strokeColor=none;fillColor=none;align=left;verticalAlign=top;spacingLeft=4;spacingRight=4;overflow=hidden;rotatable=0;points=[[0,0.5],[1,0.5]];portConstraint=eastwest;whiteSpace=wrap;html=1;" vertex="1" parent="wgPgASkdUD0x6gexptYC-14">
          <mxGeometry y="26" width="203" height="26" as="geometry" />
        </mxCell>
        <mxCell id="wgPgASkdUD0x6gexptYC-19" value="- log : int" style="text;strokeColor=none;fillColor=none;align=left;verticalAlign=top;spacingLeft=4;spacingRight=4;overflow=hidden;rotatable=0;points=[[0,0.5],[1,0.5]];portConstraint=eastwest;whiteSpace=wrap;html=1;" vertex="1" parent="wgPgASkdUD0x6gexptYC-14">
          <mxGeometry y="52" width="203" height="26" as="geometry" />
        </mxCell>
        <mxCell id="wgPgASkdUD0x6gexptYC-15" value="- configuracao : sting" style="text;strokeColor=none;fillColor=none;align=left;verticalAlign=top;spacingLeft=4;spacingRight=4;overflow=hidden;rotatable=0;points=[[0,0.5],[1,0.5]];portConstraint=eastwest;whiteSpace=wrap;html=1;" vertex="1" parent="wgPgASkdUD0x6gexptYC-14">
          <mxGeometry y="78" width="203" height="26" as="geometry" />
        </mxCell>
        <mxCell id="wgPgASkdUD0x6gexptYC-16" value="" style="line;strokeWidth=1;fillColor=none;align=left;verticalAlign=middle;spacingTop=-1;spacingLeft=3;spacingRight=3;rotatable=0;labelPosition=right;points=[];portConstraint=eastwest;strokeColor=inherit;" vertex="1" parent="wgPgASkdUD0x6gexptYC-14">
          <mxGeometry y="104" width="203" height="8" as="geometry" />
        </mxCell>
        <mxCell id="wgPgASkdUD0x6gexptYC-17" value="+ChamarElevador()" style="text;strokeColor=none;fillColor=none;align=left;verticalAlign=top;spacingLeft=4;spacingRight=4;overflow=hidden;rotatable=0;points=[[0,0.5],[1,0.5]];portConstraint=eastwest;whiteSpace=wrap;html=1;" vertex="1" parent="wgPgASkdUD0x6gexptYC-14">
          <mxGeometry y="112" width="203" height="26" as="geometry" />
        </mxCell>
        <mxCell id="wgPgASkdUD0x6gexptYC-29" value="+ConfigurarSistema()" style="text;strokeColor=none;fillColor=none;align=left;verticalAlign=top;spacingLeft=4;spacingRight=4;overflow=hidden;rotatable=0;points=[[0,0.5],[1,0.5]];portConstraint=eastwest;whiteSpace=wrap;html=1;" vertex="1" parent="wgPgASkdUD0x6gexptYC-14">
          <mxGeometry y="138" width="203" height="26" as="geometry" />
        </mxCell>
        <mxCell id="wgPgASkdUD0x6gexptYC-31" value="+ObterStatusElevador()" style="text;strokeColor=none;fillColor=none;align=left;verticalAlign=top;spacingLeft=4;spacingRight=4;overflow=hidden;rotatable=0;points=[[0,0.5],[1,0.5]];portConstraint=eastwest;whiteSpace=wrap;html=1;" vertex="1" parent="wgPgASkdUD0x6gexptYC-14">
          <mxGeometry y="164" width="203" height="26" as="geometry" />
        </mxCell>
        <mxCell id="wgPgASkdUD0x6gexptYC-30" value="+registrarLog()" style="text;strokeColor=none;fillColor=none;align=left;verticalAlign=top;spacingLeft=4;spacingRight=4;overflow=hidden;rotatable=0;points=[[0,0.5],[1,0.5]];portConstraint=eastwest;whiteSpace=wrap;html=1;" vertex="1" parent="wgPgASkdUD0x6gexptYC-14">
          <mxGeometry y="190" width="203" height="26" as="geometry" />
        </mxCell>
        <mxCell id="wgPgASkdUD0x6gexptYC-120" style="edgeStyle=none;curved=1;rounded=0;orthogonalLoop=1;jettySize=auto;html=1;fontSize=12;startSize=8;endSize=8;endArrow=none;endFill=0;" edge="1" parent="1" source="wgPgASkdUD0x6gexptYC-32" target="wgPgASkdUD0x6gexptYC-14">
          <mxGeometry relative="1" as="geometry" />
        </mxCell>
        <mxCell id="wgPgASkdUD0x6gexptYC-32" value="Sensor" style="swimlane;fontStyle=1;align=center;verticalAlign=top;childLayout=stackLayout;horizontal=1;startSize=26;horizontalStack=0;resizeParent=1;resizeParentMax=0;resizeLast=0;collapsible=1;marginBottom=0;whiteSpace=wrap;html=1;" vertex="1" parent="1">
          <mxGeometry x="-240" y="-30" width="160" height="86" as="geometry" />
        </mxCell>
        <mxCell id="wgPgASkdUD0x6gexptYC-36" value="" style="line;strokeWidth=1;fillColor=none;align=left;verticalAlign=middle;spacingTop=-1;spacingLeft=3;spacingRight=3;rotatable=0;labelPosition=right;points=[];portConstraint=eastwest;strokeColor=inherit;" vertex="1" parent="wgPgASkdUD0x6gexptYC-32">
          <mxGeometry y="26" width="160" height="8" as="geometry" />
        </mxCell>
        <mxCell id="wgPgASkdUD0x6gexptYC-38" value="+NotificarSistema()" style="text;strokeColor=none;fillColor=none;align=left;verticalAlign=top;spacingLeft=4;spacingRight=4;overflow=hidden;rotatable=0;points=[[0,0.5],[1,0.5]];portConstraint=eastwest;whiteSpace=wrap;html=1;" vertex="1" parent="wgPgASkdUD0x6gexptYC-32">
          <mxGeometry y="34" width="160" height="26" as="geometry" />
        </mxCell>
        <mxCell id="wgPgASkdUD0x6gexptYC-37" value="&lt;div&gt;+getID()&lt;/div&gt;" style="text;strokeColor=none;fillColor=none;align=left;verticalAlign=top;spacingLeft=4;spacingRight=4;overflow=hidden;rotatable=0;points=[[0,0.5],[1,0.5]];portConstraint=eastwest;whiteSpace=wrap;html=1;" vertex="1" parent="wgPgASkdUD0x6gexptYC-32">
          <mxGeometry y="60" width="160" height="26" as="geometry" />
        </mxCell>
        <mxCell id="wgPgASkdUD0x6gexptYC-121" style="edgeStyle=none;curved=1;rounded=0;orthogonalLoop=1;jettySize=auto;html=1;fontSize=12;startSize=8;endSize=8;endArrow=classic;endFill=0;" edge="1" parent="1" source="wgPgASkdUD0x6gexptYC-39" target="wgPgASkdUD0x6gexptYC-32">
          <mxGeometry relative="1" as="geometry" />
        </mxCell>
        <mxCell id="wgPgASkdUD0x6gexptYC-39" value="SensorIncendio" style="swimlane;fontStyle=1;align=center;verticalAlign=top;childLayout=stackLayout;horizontal=1;startSize=26;horizontalStack=0;resizeParent=1;resizeParentMax=0;resizeLast=0;collapsible=1;marginBottom=0;whiteSpace=wrap;html=1;" vertex="1" parent="1">
          <mxGeometry x="-372" y="-155" width="160" height="60" as="geometry" />
        </mxCell>
        <mxCell id="wgPgASkdUD0x6gexptYC-40" value="" style="line;strokeWidth=1;fillColor=none;align=left;verticalAlign=middle;spacingTop=-1;spacingLeft=3;spacingRight=3;rotatable=0;labelPosition=right;points=[];portConstraint=eastwest;strokeColor=inherit;" vertex="1" parent="wgPgASkdUD0x6gexptYC-39">
          <mxGeometry y="26" width="160" height="8" as="geometry" />
        </mxCell>
        <mxCell id="wgPgASkdUD0x6gexptYC-41" value="+AtivarAlarme()" style="text;strokeColor=none;fillColor=none;align=left;verticalAlign=top;spacingLeft=4;spacingRight=4;overflow=hidden;rotatable=0;points=[[0,0.5],[1,0.5]];portConstraint=eastwest;whiteSpace=wrap;html=1;" vertex="1" parent="wgPgASkdUD0x6gexptYC-39">
          <mxGeometry y="34" width="160" height="26" as="geometry" />
        </mxCell>
        <mxCell id="wgPgASkdUD0x6gexptYC-122" style="edgeStyle=none;curved=1;rounded=0;orthogonalLoop=1;jettySize=auto;html=1;fontSize=12;startSize=8;endSize=8;endArrow=classic;endFill=0;" edge="1" parent="1" source="wgPgASkdUD0x6gexptYC-43" target="wgPgASkdUD0x6gexptYC-32">
          <mxGeometry relative="1" as="geometry" />
        </mxCell>
        <mxCell id="wgPgASkdUD0x6gexptYC-43" value="SensorCarga" style="swimlane;fontStyle=1;align=center;verticalAlign=top;childLayout=stackLayout;horizontal=1;startSize=26;horizontalStack=0;resizeParent=1;resizeParentMax=0;resizeLast=0;collapsible=1;marginBottom=0;whiteSpace=wrap;html=1;" vertex="1" parent="1">
          <mxGeometry x="-149" y="-168" width="160" height="86" as="geometry" />
        </mxCell>
        <mxCell id="wgPgASkdUD0x6gexptYC-44" value="- PesoMaximo : float" style="text;strokeColor=none;fillColor=none;align=left;verticalAlign=top;spacingLeft=4;spacingRight=4;overflow=hidden;rotatable=0;points=[[0,0.5],[1,0.5]];portConstraint=eastwest;whiteSpace=wrap;html=1;" vertex="1" parent="wgPgASkdUD0x6gexptYC-43">
          <mxGeometry y="26" width="160" height="26" as="geometry" />
        </mxCell>
        <mxCell id="wgPgASkdUD0x6gexptYC-47" value="" style="line;strokeWidth=1;fillColor=none;align=left;verticalAlign=middle;spacingTop=-1;spacingLeft=3;spacingRight=3;rotatable=0;labelPosition=right;points=[];portConstraint=eastwest;strokeColor=inherit;" vertex="1" parent="wgPgASkdUD0x6gexptYC-43">
          <mxGeometry y="52" width="160" height="8" as="geometry" />
        </mxCell>
        <mxCell id="wgPgASkdUD0x6gexptYC-48" value="+ GetPesoAtual()" style="text;strokeColor=none;fillColor=none;align=left;verticalAlign=top;spacingLeft=4;spacingRight=4;overflow=hidden;rotatable=0;points=[[0,0.5],[1,0.5]];portConstraint=eastwest;whiteSpace=wrap;html=1;" vertex="1" parent="wgPgASkdUD0x6gexptYC-43">
          <mxGeometry y="60" width="160" height="26" as="geometry" />
        </mxCell>
        <mxCell id="wgPgASkdUD0x6gexptYC-123" style="edgeStyle=none;curved=1;rounded=0;orthogonalLoop=1;jettySize=auto;html=1;entryX=0.5;entryY=0;entryDx=0;entryDy=0;fontSize=12;startSize=8;endSize=8;endArrow=block;endFill=0;" edge="1" parent="1" source="wgPgASkdUD0x6gexptYC-50" target="wgPgASkdUD0x6gexptYC-56">
          <mxGeometry relative="1" as="geometry" />
        </mxCell>
        <mxCell id="wgPgASkdUD0x6gexptYC-50" value="UsuÃ¡rioVIP" style="swimlane;fontStyle=1;align=center;verticalAlign=top;childLayout=stackLayout;horizontal=1;startSize=26;horizontalStack=0;resizeParent=1;resizeParentMax=0;resizeLast=0;collapsible=1;marginBottom=0;whiteSpace=wrap;html=1;" vertex="1" parent="1">
          <mxGeometry x="-419" y="97" width="160" height="86" as="geometry" />
        </mxCell>
        <mxCell id="wgPgASkdUD0x6gexptYC-51" value="-DadosBiometricos : string" style="text;strokeColor=none;fillColor=none;align=left;verticalAlign=top;spacingLeft=4;spacingRight=4;overflow=hidden;rotatable=0;points=[[0,0.5],[1,0.5]];portConstraint=eastwest;whiteSpace=wrap;html=1;" vertex="1" parent="wgPgASkdUD0x6gexptYC-50">
          <mxGeometry y="26" width="160" height="26" as="geometry" />
        </mxCell>
        <mxCell id="wgPgASkdUD0x6gexptYC-54" value="" style="line;strokeWidth=1;fillColor=none;align=left;verticalAlign=middle;spacingTop=-1;spacingLeft=3;spacingRight=3;rotatable=0;labelPosition=right;points=[];portConstraint=eastwest;strokeColor=inherit;" vertex="1" parent="wgPgASkdUD0x6gexptYC-50">
          <mxGeometry y="52" width="160" height="8" as="geometry" />
        </mxCell>
        <mxCell id="wgPgASkdUD0x6gexptYC-55" value="+Autenticar()" style="text;strokeColor=none;fillColor=none;align=left;verticalAlign=top;spacingLeft=4;spacingRight=4;overflow=hidden;rotatable=0;points=[[0,0.5],[1,0.5]];portConstraint=eastwest;whiteSpace=wrap;html=1;" vertex="1" parent="wgPgASkdUD0x6gexptYC-50">
          <mxGeometry y="60" width="160" height="26" as="geometry" />
        </mxCell>
        <mxCell id="wgPgASkdUD0x6gexptYC-124" style="edgeStyle=orthogonalEdgeStyle;rounded=0;orthogonalLoop=1;jettySize=auto;html=1;fontSize=12;startSize=8;endSize=8;curved=1;endArrow=none;endFill=0;" edge="1" parent="1" source="wgPgASkdUD0x6gexptYC-56" target="wgPgASkdUD0x6gexptYC-14">
          <mxGeometry relative="1" as="geometry" />
        </mxCell>
        <mxCell id="wgPgASkdUD0x6gexptYC-125" value="&lt;font style=&quot;font-size: 15px;&quot;&gt;1&lt;/font&gt;" style="edgeLabel;html=1;align=center;verticalAlign=middle;resizable=0;points=[];fontSize=12;" vertex="1" connectable="0" parent="wgPgASkdUD0x6gexptYC-124">
          <mxGeometry x="0.839" y="-1" relative="1" as="geometry">
            <mxPoint as="offset" />
          </mxGeometry>
        </mxCell>
        <mxCell id="wgPgASkdUD0x6gexptYC-56" value="UsuÃ¡rio" style="swimlane;fontStyle=1;align=center;verticalAlign=top;childLayout=stackLayout;horizontal=1;startSize=26;horizontalStack=0;resizeParent=1;resizeParentMax=0;resizeLast=0;collapsible=1;marginBottom=0;whiteSpace=wrap;html=1;" vertex="1" parent="1">
          <mxGeometry x="-419" y="264.5" width="160" height="164" as="geometry" />
        </mxCell>
        <mxCell id="wgPgASkdUD0x6gexptYC-57" value="- id : int" style="text;strokeColor=none;fillColor=none;align=left;verticalAlign=top;spacingLeft=4;spacingRight=4;overflow=hidden;rotatable=0;points=[[0,0.5],[1,0.5]];portConstraint=eastwest;whiteSpace=wrap;html=1;" vertex="1" parent="wgPgASkdUD0x6gexptYC-56">
          <mxGeometry y="26" width="160" height="26" as="geometry" />
        </mxCell>
        <mxCell id="wgPgASkdUD0x6gexptYC-58" value="- nome : string&lt;div&gt;&lt;br&gt;&lt;/div&gt;" style="text;strokeColor=none;fillColor=none;align=left;verticalAlign=top;spacingLeft=4;spacingRight=4;overflow=hidden;rotatable=0;points=[[0,0.5],[1,0.5]];portConstraint=eastwest;whiteSpace=wrap;html=1;" vertex="1" parent="wgPgASkdUD0x6gexptYC-56">
          <mxGeometry y="52" width="160" height="26" as="geometry" />
        </mxCell>
        <mxCell id="wgPgASkdUD0x6gexptYC-59" value="- NivelAcesso : string" style="text;strokeColor=none;fillColor=none;align=left;verticalAlign=top;spacingLeft=4;spacingRight=4;overflow=hidden;rotatable=0;points=[[0,0.5],[1,0.5]];portConstraint=eastwest;whiteSpace=wrap;html=1;" vertex="1" parent="wgPgASkdUD0x6gexptYC-56">
          <mxGeometry y="78" width="160" height="26" as="geometry" />
        </mxCell>
        <mxCell id="wgPgASkdUD0x6gexptYC-60" value="" style="line;strokeWidth=1;fillColor=none;align=left;verticalAlign=middle;spacingTop=-1;spacingLeft=3;spacingRight=3;rotatable=0;labelPosition=right;points=[];portConstraint=eastwest;strokeColor=inherit;" vertex="1" parent="wgPgASkdUD0x6gexptYC-56">
          <mxGeometry y="104" width="160" height="8" as="geometry" />
        </mxCell>
        <mxCell id="wgPgASkdUD0x6gexptYC-62" value="+Login()" style="text;strokeColor=none;fillColor=none;align=left;verticalAlign=top;spacingLeft=4;spacingRight=4;overflow=hidden;rotatable=0;points=[[0,0.5],[1,0.5]];portConstraint=eastwest;whiteSpace=wrap;html=1;" vertex="1" parent="wgPgASkdUD0x6gexptYC-56">
          <mxGeometry y="112" width="160" height="26" as="geometry" />
        </mxCell>
        <mxCell id="wgPgASkdUD0x6gexptYC-63" value="+getNome()" style="text;strokeColor=none;fillColor=none;align=left;verticalAlign=top;spacingLeft=4;spacingRight=4;overflow=hidden;rotatable=0;points=[[0,0.5],[1,0.5]];portConstraint=eastwest;whiteSpace=wrap;html=1;" vertex="1" parent="wgPgASkdUD0x6gexptYC-56">
          <mxGeometry y="138" width="160" height="26" as="geometry" />
        </mxCell>
        <mxCell id="wgPgASkdUD0x6gexptYC-129" style="edgeStyle=none;curved=1;rounded=0;orthogonalLoop=1;jettySize=auto;html=1;fontSize=12;startSize=8;endSize=8;endArrow=diamondThin;endFill=1;" edge="1" parent="1" source="wgPgASkdUD0x6gexptYC-64" target="wgPgASkdUD0x6gexptYC-14">
          <mxGeometry relative="1" as="geometry" />
        </mxCell>
        <mxCell id="wgPgASkdUD0x6gexptYC-131" value="&lt;font style=&quot;font-size: 17px;&quot;&gt;1&lt;/font&gt;" style="edgeLabel;html=1;align=center;verticalAlign=middle;resizable=0;points=[];fontSize=12;" vertex="1" connectable="0" parent="wgPgASkdUD0x6gexptYC-129">
          <mxGeometry x="0.6595" y="-1" relative="1" as="geometry">
            <mxPoint x="9" y="1" as="offset" />
          </mxGeometry>
        </mxCell>
        <mxCell id="wgPgASkdUD0x6gexptYC-132" value="&lt;font style=&quot;font-size: 18px;&quot;&gt;*&lt;/font&gt;" style="edgeLabel;html=1;align=center;verticalAlign=middle;resizable=0;points=[];fontSize=12;" vertex="1" connectable="0" parent="wgPgASkdUD0x6gexptYC-129">
          <mxGeometry x="-0.4893" relative="1" as="geometry">
            <mxPoint as="offset" />
          </mxGeometry>
        </mxCell>
        <mxCell id="wgPgASkdUD0x6gexptYC-64" value="Elevador" style="swimlane;fontStyle=1;align=center;verticalAlign=top;childLayout=stackLayout;horizontal=1;startSize=26;horizontalStack=0;resizeParent=1;resizeParentMax=0;resizeLast=0;collapsible=1;marginBottom=0;whiteSpace=wrap;html=1;" vertex="1" parent="1">
          <mxGeometry x="211" y="19" width="239" height="398" as="geometry" />
        </mxCell>
        <mxCell id="wgPgASkdUD0x6gexptYC-65" value="- id : int" style="text;strokeColor=none;fillColor=none;align=left;verticalAlign=top;spacingLeft=4;spacingRight=4;overflow=hidden;rotatable=0;points=[[0,0.5],[1,0.5]];portConstraint=eastwest;whiteSpace=wrap;html=1;" vertex="1" parent="wgPgASkdUD0x6gexptYC-64">
          <mxGeometry y="26" width="239" height="26" as="geometry" />
        </mxCell>
        <mxCell id="wgPgASkdUD0x6gexptYC-67" value="- AndarAtual : int" style="text;strokeColor=none;fillColor=none;align=left;verticalAlign=top;spacingLeft=4;spacingRight=4;overflow=hidden;rotatable=0;points=[[0,0.5],[1,0.5]];portConstraint=eastwest;whiteSpace=wrap;html=1;" vertex="1" parent="wgPgASkdUD0x6gexptYC-64">
          <mxGeometry y="52" width="239" height="26" as="geometry" />
        </mxCell>
        <mxCell id="wgPgASkdUD0x6gexptYC-94" value="- Direcao : string" style="text;strokeColor=none;fillColor=none;align=left;verticalAlign=top;spacingLeft=4;spacingRight=4;overflow=hidden;rotatable=0;points=[[0,0.5],[1,0.5]];portConstraint=eastwest;whiteSpace=wrap;html=1;" vertex="1" parent="wgPgASkdUD0x6gexptYC-64">
          <mxGeometry y="78" width="239" height="26" as="geometry" />
        </mxCell>
        <mxCell id="wgPgASkdUD0x6gexptYC-95" value="- PortasAbertas : boolean" style="text;strokeColor=none;fillColor=none;align=left;verticalAlign=top;spacingLeft=4;spacingRight=4;overflow=hidden;rotatable=0;points=[[0,0.5],[1,0.5]];portConstraint=eastwest;whiteSpace=wrap;html=1;" vertex="1" parent="wgPgASkdUD0x6gexptYC-64">
          <mxGeometry y="104" width="239" height="26" as="geometry" />
        </mxCell>
        <mxCell id="wgPgASkdUD0x6gexptYC-93" value="- paradas : int" style="text;strokeColor=none;fillColor=none;align=left;verticalAlign=top;spacingLeft=4;spacingRight=4;overflow=hidden;rotatable=0;points=[[0,0.5],[1,0.5]];portConstraint=eastwest;whiteSpace=wrap;html=1;" vertex="1" parent="wgPgASkdUD0x6gexptYC-64">
          <mxGeometry y="130" width="239" height="26" as="geometry" />
        </mxCell>
        <mxCell id="wgPgASkdUD0x6gexptYC-89" value="- DisplayInterno : string" style="text;strokeColor=none;fillColor=none;align=left;verticalAlign=top;spacingLeft=4;spacingRight=4;overflow=hidden;rotatable=0;points=[[0,0.5],[1,0.5]];portConstraint=eastwest;whiteSpace=wrap;html=1;" vertex="1" parent="wgPgASkdUD0x6gexptYC-64">
          <mxGeometry y="156" width="239" height="26" as="geometry" />
        </mxCell>
        <mxCell id="wgPgASkdUD0x6gexptYC-100" value="IndicadorExterno : string" style="text;strokeColor=none;fillColor=none;align=left;verticalAlign=top;spacingLeft=4;spacingRight=4;overflow=hidden;rotatable=0;points=[[0,0.5],[1,0.5]];portConstraint=eastwest;whiteSpace=wrap;html=1;" vertex="1" parent="wgPgASkdUD0x6gexptYC-64">
          <mxGeometry y="182" width="239" height="26" as="geometry" />
        </mxCell>
        <mxCell id="wgPgASkdUD0x6gexptYC-68" value="" style="line;strokeWidth=1;fillColor=none;align=left;verticalAlign=middle;spacingTop=-1;spacingLeft=3;spacingRight=3;rotatable=0;labelPosition=right;points=[];portConstraint=eastwest;strokeColor=inherit;" vertex="1" parent="wgPgASkdUD0x6gexptYC-64">
          <mxGeometry y="208" width="239" height="8" as="geometry" />
        </mxCell>
        <mxCell id="wgPgASkdUD0x6gexptYC-70" value="+Chamar()" style="text;strokeColor=none;fillColor=none;align=left;verticalAlign=top;spacingLeft=4;spacingRight=4;overflow=hidden;rotatable=0;points=[[0,0.5],[1,0.5]];portConstraint=eastwest;whiteSpace=wrap;html=1;" vertex="1" parent="wgPgASkdUD0x6gexptYC-64">
          <mxGeometry y="216" width="239" height="26" as="geometry" />
        </mxCell>
        <mxCell id="wgPgASkdUD0x6gexptYC-97" value="+Mover()" style="text;strokeColor=none;fillColor=none;align=left;verticalAlign=top;spacingLeft=4;spacingRight=4;overflow=hidden;rotatable=0;points=[[0,0.5],[1,0.5]];portConstraint=eastwest;whiteSpace=wrap;html=1;" vertex="1" parent="wgPgASkdUD0x6gexptYC-64">
          <mxGeometry y="242" width="239" height="26" as="geometry" />
        </mxCell>
        <mxCell id="wgPgASkdUD0x6gexptYC-99" value="+AbrirPortas()" style="text;strokeColor=none;fillColor=none;align=left;verticalAlign=top;spacingLeft=4;spacingRight=4;overflow=hidden;rotatable=0;points=[[0,0.5],[1,0.5]];portConstraint=eastwest;whiteSpace=wrap;html=1;" vertex="1" parent="wgPgASkdUD0x6gexptYC-64">
          <mxGeometry y="268" width="239" height="26" as="geometry" />
        </mxCell>
        <mxCell id="wgPgASkdUD0x6gexptYC-98" value="+FecharPortas" style="text;strokeColor=none;fillColor=none;align=left;verticalAlign=top;spacingLeft=4;spacingRight=4;overflow=hidden;rotatable=0;points=[[0,0.5],[1,0.5]];portConstraint=eastwest;whiteSpace=wrap;html=1;" vertex="1" parent="wgPgASkdUD0x6gexptYC-64">
          <mxGeometry y="294" width="239" height="26" as="geometry" />
        </mxCell>
        <mxCell id="wgPgASkdUD0x6gexptYC-69" value="+ModoIncendio()" style="text;strokeColor=none;fillColor=none;align=left;verticalAlign=top;spacingLeft=4;spacingRight=4;overflow=hidden;rotatable=0;points=[[0,0.5],[1,0.5]];portConstraint=eastwest;whiteSpace=wrap;html=1;" vertex="1" parent="wgPgASkdUD0x6gexptYC-64">
          <mxGeometry y="320" width="239" height="26" as="geometry" />
        </mxCell>
        <mxCell id="wgPgASkdUD0x6gexptYC-102" value="+ModoEmergencia()" style="text;strokeColor=none;fillColor=none;align=left;verticalAlign=top;spacingLeft=4;spacingRight=4;overflow=hidden;rotatable=0;points=[[0,0.5],[1,0.5]];portConstraint=eastwest;whiteSpace=wrap;html=1;" vertex="1" parent="wgPgASkdUD0x6gexptYC-64">
          <mxGeometry y="346" width="239" height="26" as="geometry" />
        </mxCell>
        <mxCell id="wgPgASkdUD0x6gexptYC-101" value="+getAndarAtual()" style="text;strokeColor=none;fillColor=none;align=left;verticalAlign=top;spacingLeft=4;spacingRight=4;overflow=hidden;rotatable=0;points=[[0,0.5],[1,0.5]];portConstraint=eastwest;whiteSpace=wrap;html=1;" vertex="1" parent="wgPgASkdUD0x6gexptYC-64">
          <mxGeometry y="372" width="239" height="26" as="geometry" />
        </mxCell>
        <mxCell id="wgPgASkdUD0x6gexptYC-119" style="edgeStyle=none;curved=1;rounded=0;orthogonalLoop=1;jettySize=auto;html=1;fontSize=12;startSize=8;endSize=8;endArrow=none;endFill=0;" edge="1" parent="1" source="wgPgASkdUD0x6gexptYC-103" target="wgPgASkdUD0x6gexptYC-14">
          <mxGeometry relative="1" as="geometry" />
        </mxCell>
        <mxCell id="wgPgASkdUD0x6gexptYC-103" value="SistemaReconhecimentoFacial" style="swimlane;fontStyle=1;align=center;verticalAlign=top;childLayout=stackLayout;horizontal=1;startSize=26;horizontalStack=0;resizeParent=1;resizeParentMax=0;resizeLast=0;collapsible=1;marginBottom=0;whiteSpace=wrap;html=1;" vertex="1" parent="1">
          <mxGeometry x="88" y="-105" width="254" height="86" as="geometry" />
        </mxCell>
        <mxCell id="wgPgASkdUD0x6gexptYC-105" value="" style="line;strokeWidth=1;fillColor=none;align=left;verticalAlign=middle;spacingTop=-1;spacingLeft=3;spacingRight=3;rotatable=0;labelPosition=right;points=[];portConstraint=eastwest;strokeColor=inherit;" vertex="1" parent="wgPgASkdUD0x6gexptYC-103">
          <mxGeometry y="26" width="254" height="8" as="geometry" />
        </mxCell>
        <mxCell id="wgPgASkdUD0x6gexptYC-108" value="+VerificarAcesso()" style="text;strokeColor=none;fillColor=none;align=left;verticalAlign=top;spacingLeft=4;spacingRight=4;overflow=hidden;rotatable=0;points=[[0,0.5],[1,0.5]];portConstraint=eastwest;whiteSpace=wrap;html=1;" vertex="1" parent="wgPgASkdUD0x6gexptYC-103">
          <mxGeometry y="34" width="254" height="26" as="geometry" />
        </mxCell>
        <mxCell id="wgPgASkdUD0x6gexptYC-104" value="+GetStatus()" style="text;strokeColor=none;fillColor=none;align=left;verticalAlign=top;spacingLeft=4;spacingRight=4;overflow=hidden;rotatable=0;points=[[0,0.5],[1,0.5]];portConstraint=eastwest;whiteSpace=wrap;html=1;" vertex="1" parent="wgPgASkdUD0x6gexptYC-103">
          <mxGeometry y="60" width="254" height="26" as="geometry" />
        </mxCell>
        <mxCell id="wgPgASkdUD0x6gexptYC-109" value="ConfiguraÃ§Ã£o" style="swimlane;fontStyle=1;align=center;verticalAlign=top;childLayout=stackLayout;horizontal=1;startSize=26;horizontalStack=0;resizeParent=1;resizeParentMax=0;resizeLast=0;collapsible=1;marginBottom=0;whiteSpace=wrap;html=1;" vertex="1" parent="1">
          <mxGeometry x="-17" y="501" width="239" height="112" as="geometry" />
        </mxCell>
        <mxCell id="wgPgASkdUD0x6gexptYC-110" value="-AndaresPorElevador : int" style="text;strokeColor=none;fillColor=none;align=left;verticalAlign=top;spacingLeft=4;spacingRight=4;overflow=hidden;rotatable=0;points=[[0,0.5],[1,0.5]];portConstraint=eastwest;whiteSpace=wrap;html=1;" vertex="1" parent="wgPgASkdUD0x6gexptYC-109">
          <mxGeometry y="26" width="239" height="26" as="geometry" />
        </mxCell>
        <mxCell id="wgPgASkdUD0x6gexptYC-112" value="-AndaresVIP : int" style="text;strokeColor=none;fillColor=none;align=left;verticalAlign=top;spacingLeft=4;spacingRight=4;overflow=hidden;rotatable=0;points=[[0,0.5],[1,0.5]];portConstraint=eastwest;whiteSpace=wrap;html=1;" vertex="1" parent="wgPgASkdUD0x6gexptYC-109">
          <mxGeometry y="52" width="239" height="26" as="geometry" />
        </mxCell>
        <mxCell id="wgPgASkdUD0x6gexptYC-111" value="" style="line;strokeWidth=1;fillColor=none;align=left;verticalAlign=middle;spacingTop=-1;spacingLeft=3;spacingRight=3;rotatable=0;labelPosition=right;points=[];portConstraint=eastwest;strokeColor=inherit;" vertex="1" parent="wgPgASkdUD0x6gexptYC-109">
          <mxGeometry y="78" width="239" height="8" as="geometry" />
        </mxCell>
        <mxCell id="wgPgASkdUD0x6gexptYC-113" value="+GetAndaresVIP()" style="text;strokeColor=none;fillColor=none;align=left;verticalAlign=top;spacingLeft=4;spacingRight=4;overflow=hidden;rotatable=0;points=[[0,0.5],[1,0.5]];portConstraint=eastwest;whiteSpace=wrap;html=1;" vertex="1" parent="wgPgASkdUD0x6gexptYC-109">
          <mxGeometry y="86" width="239" height="26" as="geometry" />
        </mxCell>
        <mxCell id="wgPgASkdUD0x6gexptYC-136" style="edgeStyle=none;curved=1;rounded=0;orthogonalLoop=1;jettySize=auto;html=1;fontSize=12;startSize=8;endSize=8;endArrow=diamondThin;endFill=1;" edge="1" parent="1" source="wgPgASkdUD0x6gexptYC-114" target="wgPgASkdUD0x6gexptYC-14">
          <mxGeometry relative="1" as="geometry" />
        </mxCell>
        <mxCell id="wgPgASkdUD0x6gexptYC-137" value="1" style="edgeLabel;html=1;align=center;verticalAlign=middle;resizable=0;points=[];fontSize=12;" vertex="1" connectable="0" parent="wgPgASkdUD0x6gexptYC-136">
          <mxGeometry x="0.6773" y="-1" relative="1" as="geometry">
            <mxPoint as="offset" />
          </mxGeometry>
        </mxCell>
        <mxCell id="wgPgASkdUD0x6gexptYC-138" value="1" style="edgeLabel;html=1;align=center;verticalAlign=middle;resizable=0;points=[];fontSize=12;" vertex="1" connectable="0" parent="wgPgASkdUD0x6gexptYC-136">
          <mxGeometry x="-0.7294" y="-2" relative="1" as="geometry">
            <mxPoint as="offset" />
          </mxGeometry>
        </mxCell>
        <mxCell id="wgPgASkdUD0x6gexptYC-114" value="Log" style="swimlane;fontStyle=1;align=center;verticalAlign=top;childLayout=stackLayout;horizontal=1;startSize=26;horizontalStack=0;resizeParent=1;resizeParentMax=0;resizeLast=0;collapsible=1;marginBottom=0;whiteSpace=wrap;html=1;" vertex="1" parent="1">
          <mxGeometry x="-336" y="509" width="239" height="112" as="geometry" />
        </mxCell>
        <mxCell id="wgPgASkdUD0x6gexptYC-115" value="- Registros : list" style="text;strokeColor=none;fillColor=none;align=left;verticalAlign=top;spacingLeft=4;spacingRight=4;overflow=hidden;rotatable=0;points=[[0,0.5],[1,0.5]];portConstraint=eastwest;whiteSpace=wrap;html=1;" vertex="1" parent="wgPgASkdUD0x6gexptYC-114">
          <mxGeometry y="26" width="239" height="26" as="geometry" />
        </mxCell>
        <mxCell id="wgPgASkdUD0x6gexptYC-117" value="" style="line;strokeWidth=1;fillColor=none;align=left;verticalAlign=middle;spacingTop=-1;spacingLeft=3;spacingRight=3;rotatable=0;labelPosition=right;points=[];portConstraint=eastwest;strokeColor=inherit;" vertex="1" parent="wgPgASkdUD0x6gexptYC-114">
          <mxGeometry y="52" width="239" height="8" as="geometry" />
        </mxCell>
        <mxCell id="wgPgASkdUD0x6gexptYC-116" value="+ Registrar()" style="text;strokeColor=none;fillColor=none;align=left;verticalAlign=top;spacingLeft=4;spacingRight=4;overflow=hidden;rotatable=0;points=[[0,0.5],[1,0.5]];portConstraint=eastwest;whiteSpace=wrap;html=1;" vertex="1" parent="wgPgASkdUD0x6gexptYC-114">
          <mxGeometry y="60" width="239" height="26" as="geometry" />
        </mxCell>
        <mxCell id="wgPgASkdUD0x6gexptYC-118" value="+GetRegistros()" style="text;strokeColor=none;fillColor=none;align=left;verticalAlign=top;spacingLeft=4;spacingRight=4;overflow=hidden;rotatable=0;points=[[0,0.5],[1,0.5]];portConstraint=eastwest;whiteSpace=wrap;html=1;" vertex="1" parent="wgPgASkdUD0x6gexptYC-114">
          <mxGeometry y="86" width="239" height="26" as="geometry" />
        </mxCell>
        <mxCell id="wgPgASkdUD0x6gexptYC-128" value="&lt;font style=&quot;font-size: 19px;&quot;&gt;*&lt;/font&gt;" style="text;html=1;align=center;verticalAlign=middle;resizable=0;points=[];autosize=1;strokeColor=none;fillColor=none;fontSize=16;" vertex="1" parent="1">
          <mxGeometry x="-300" y="329" width="25" height="35" as="geometry" />
        </mxCell>
        <mxCell id="wgPgASkdUD0x6gexptYC-133" style="edgeStyle=none;curved=1;rounded=0;orthogonalLoop=1;jettySize=auto;html=1;fontSize=12;startSize=8;endSize=8;endArrow=diamondThin;endFill=1;" edge="1" parent="1" source="wgPgASkdUD0x6gexptYC-109" target="wgPgASkdUD0x6gexptYC-14">
          <mxGeometry relative="1" as="geometry">
            <mxPoint x="132" y="476" as="sourcePoint" />
            <mxPoint x="131" y="335" as="targetPoint" />
          </mxGeometry>
        </mxCell>
        <mxCell id="wgPgASkdUD0x6gexptYC-134" value="&lt;font style=&quot;font-size: 17px;&quot;&gt;1&lt;/font&gt;" style="edgeLabel;html=1;align=center;verticalAlign=middle;resizable=0;points=[];fontSize=12;" vertex="1" connectable="0" parent="wgPgASkdUD0x6gexptYC-133">
          <mxGeometry x="0.6595" y="-1" relative="1" as="geometry">
            <mxPoint as="offset" />
          </mxGeometry>
        </mxCell>
        <mxCell id="wgPgASkdUD0x6gexptYC-135" value="&lt;font style=&quot;font-size: 18px;&quot;&gt;1&lt;/font&gt;" style="edgeLabel;html=1;align=center;verticalAlign=middle;resizable=0;points=[];fontSize=12;" vertex="1" connectable="0" parent="wgPgASkdUD0x6gexptYC-133">
          <mxGeometry x="-0.4893" relative="1" as="geometry">
            <mxPoint as="offset" />
          </mxGeometry>
        </mxCell>
      </root>
    </mxGraphModel>
  </diagram>
</mxfile>
